# xmcd CD database file
# Copyright (C) 1995-1998 Ti Kan
#
# Track frame offsets:
#	150
#	14405
#	30620
#	47837
#	61780
#	78780
#	97042
#	113805
#	128477
#	143952
#	159875
#	178190
#	193807
#	210022
#
# Disc length: 3060 seconds
#
# Revision: 1
# Processed by: cddbd v1.4b41PL1 Copyright (c) Steve Scherf et al.
# Submitted via: CDex 1.30
#
DISCID=af0bf20e
DTITLE=Steve Wariner - The Hits
DYEAR=1998
DGENRE=Country
TTITLE0=What I Didn't Do
TTITLE1=In A Heartbeat
TTITLE2=The Weekend
TTITLE3=Lynda
TTITLE4=When I Could Go Home To You
TTITLE5=You Can Dream Of Me
TTITLE6=Small Town Girl
TTITLE7=Life's Highway
TTITLE8=Can I Come Over Tonight
TTITLE9=Where Did I Go Wrong
TTITLE10=Some Fools Never Learn
TTITLE11=I Should Be With You
TTITLE12=The Domino Theory
TTITLE13=There For Awhile
EXTD=\nYEAR: 1998  ID3G:   2
EXTT0=
EXTT1=
EXTT2=
EXTT3=
EXTT4=
EXTT5=
EXTT6=
EXTT7=
EXTT8=
EXTT9=
EXTT10=
EXTT11=
EXTT12=
EXTT13=
PLAYORDER=
